<?xml version="1.0" encoding="UTF-8"?><svg id="a" xmlns="http://www.w3.org/2000/svg" width="593.2627" height="801.7338" viewBox="0 0 593.2627 801.7338"><defs><style>.b{fill:#fff;}</style></defs><path class="b" d="M587.1814,6.0769C583.4314,2.3169,578.2513-.0031,572.5214-.0031H20.7413C9.2913-.0031,.0013,9.2869,.0013,20.7469,.0013,32.1969,9.2913,41.4869,20.7413,41.4869H90.2214c11.45,0,20.74,9.28,20.74,20.74V780.9869c0,11.46,9.29,20.75,20.74,20.75H461.5613c11.4501,0,20.74-9.29,20.74-20.75V62.2269c0-11.46,9.29-20.74,20.74-20.74h69.4801c11.4501,0,20.74-9.29,20.74-20.74,0-5.73-2.3199-10.92-6.08-14.67ZM194.9213,41.4869h203.42c14.9301,0,24.97,15.3,19.03,29l-101.71,234.41c-7.22,16.65-30.83,16.65-38.05,0L175.9014,70.4869c-5.95-13.7,4.09-29,19.02-29Zm-42.48,116.15c0-8.33,11.41-10.7,14.73-3.06l85.27,196.55c5.95,13.7-4.1,29-19.03,29h-60.22c-11.46,0-20.75-9.29-20.75-20.7401V157.6369Zm228.3799,602.61H173.1913c-11.46,0-20.75-9.28-20.75-20.74v-239.98c0-14.89,18.5-21.8,28.26-10.55l212.28,244.62c9.04,10.43,1.64,26.65-12.16,26.65Zm60-77.93c0,14.9-18.5,21.8-28.26,10.55l-212.2599-244.61c-9.05-10.42-1.65-26.65,12.15-26.65h207.6199c11.4601,0,20.75,9.29,20.75,20.74v239.97Zm0-322.9301c0,11.45-9.2899,20.7401-20.75,20.7401h-60.21c-14.93,0-24.98-15.3-19.03-29l85.2599-196.53c3.3201-7.64,14.73-5.27,14.73,3.06v201.73Z"/></svg>